<svg width="271" height="84" viewBox="0 0 271 84" fill="none" xmlns="http://www.w3.org/2000/svg">
<path d="M0.522949 50V3.45451H32.2957V12.5909H11.7729V22.1363H30.2729V31.2954H11.7729V50H0.522949Z" fill="#314953"/>
<path d="M49.0741 3.45451V50H37.9604V3.45451H49.0741Z" fill="#314953"/>
<path d="M72.4434 50.6591C68.7767 50.6591 65.6252 49.9091 62.9889 48.4091C60.3676 46.8939 58.3449 44.7878 56.9207 42.0909C55.5116 39.3788 54.807 36.2348 54.807 32.6591C54.807 29.0681 55.5116 25.9242 56.9207 23.2272C58.3449 20.5151 60.3676 18.4091 62.9889 16.9091C65.6252 15.3939 68.7767 14.6363 72.4434 14.6363C76.1101 14.6363 79.254 15.3939 81.8752 16.9091C84.5116 18.4091 86.5343 20.5151 87.9434 23.2272C89.3676 25.9242 90.0798 29.0681 90.0798 32.6591C90.0798 36.2348 89.3676 39.3788 87.9434 42.0909C86.5343 44.7878 84.5116 46.8939 81.8752 48.4091C79.254 49.9091 76.1101 50.6591 72.4434 50.6591ZM72.5116 42.2727C73.8449 42.2727 74.9737 41.8636 75.8979 41.0454C76.8222 40.2272 77.5267 39.0909 78.0116 37.6363C78.5116 36.1818 78.7616 34.5 78.7616 32.5909C78.7616 30.6515 78.5116 28.9545 78.0116 27.5C77.5267 26.0454 76.8222 24.9091 75.8979 24.0909C74.9737 23.2727 73.8449 22.8636 72.5116 22.8636C71.1328 22.8636 69.9661 23.2727 69.0116 24.0909C68.0722 24.9091 67.3525 26.0454 66.8525 27.5C66.3676 28.9545 66.1252 30.6515 66.1252 32.5909C66.1252 34.5 66.3676 36.1818 66.8525 37.6363C67.3525 39.0909 68.0722 40.2272 69.0116 41.0454C69.9661 41.8636 71.1328 42.2727 72.5116 42.2727Z" fill="#314953"/>
<path d="M101.546 50L92.4548 15.0909H103.614L108.318 37.4545H108.614L113.659 15.0909H124.546L129.727 37.2954H130.023L134.591 15.0909H145.75L136.637 50H124.75L119.296 29.6591H118.909L113.455 50H101.546Z" fill="#314953"/>
<path d="M150.21 50V15.0909H161.324V50H150.21ZM155.779 11.0227C154.218 11.0227 152.877 10.5075 151.756 9.47724C150.635 8.43179 150.074 7.17421 150.074 5.70451C150.074 4.24997 150.635 3.00754 151.756 1.97724C152.877 0.931786 154.218 0.409058 155.779 0.409058C157.354 0.409058 158.695 0.931786 159.801 1.97724C160.923 3.00754 161.483 4.24997 161.483 5.70451C161.483 7.17421 160.923 8.43179 159.801 9.47724C158.695 10.5075 157.354 11.0227 155.779 11.0227Z" fill="#314953"/>
<path d="M168.489 50V43.6591L184.671 23.9545V23.7272H169.057V15.0909H197.921V22.0454L182.921 41.1363V41.3636H198.466V50H168.489Z" fill="#314953"/>
<path d="M220.966 50.6591C217.315 50.6591 214.163 49.9394 211.512 48.5C208.875 47.0454 206.845 44.9772 205.421 42.2954C204.012 39.5985 203.307 36.3939 203.307 32.6818C203.307 29.0757 204.019 25.9242 205.443 23.2272C206.868 20.5151 208.875 18.4091 211.466 16.9091C214.057 15.3939 217.11 14.6363 220.625 14.6363C223.11 14.6363 225.383 15.0227 227.443 15.7954C229.504 16.5681 231.284 17.7121 232.784 19.2272C234.284 20.7424 235.451 22.6136 236.284 24.8409C237.118 27.053 237.534 29.5909 237.534 32.4545V35.2272H207.193V28.7727H227.193C227.178 27.5909 226.898 26.5378 226.352 25.6136C225.807 24.6894 225.057 23.9697 224.102 23.4545C223.163 22.9242 222.08 22.6591 220.852 22.6591C219.61 22.6591 218.496 22.9394 217.512 23.5C216.527 24.0454 215.746 24.7954 215.171 25.75C214.595 26.6894 214.292 27.7575 214.262 28.9545V35.5227C214.262 36.9469 214.542 38.1969 215.102 39.2727C215.663 40.3333 216.459 41.1591 217.489 41.75C218.519 42.3409 219.746 42.6363 221.171 42.6363C222.156 42.6363 223.049 42.5 223.852 42.2272C224.656 41.9545 225.345 41.553 225.921 41.0227C226.496 40.4924 226.928 39.8409 227.216 39.0681L237.421 39.3636C236.996 41.6515 236.065 43.6439 234.625 45.3409C233.201 47.0227 231.33 48.3333 229.012 49.2727C226.693 50.1969 224.012 50.6591 220.966 50.6591Z" fill="#314953"/>
<path d="M188.568 59.7272V83H183.796L174.534 69.5682H174.387V83H168.762V59.7272H173.602L182.762 73.1363H182.955V59.7272H188.568Z" fill="#0D4B70"/>
<path d="M200.253 83.3295C198.42 83.3295 196.844 82.9545 195.526 82.2045C194.215 81.4469 193.204 80.3939 192.492 79.0454C191.787 77.6894 191.435 76.1174 191.435 74.3295C191.435 72.5341 191.787 70.9621 192.492 69.6136C193.204 68.2575 194.215 67.2045 195.526 66.4545C196.844 65.6969 198.42 65.3182 200.253 65.3182C202.086 65.3182 203.658 65.6969 204.969 66.4545C206.287 67.2045 207.299 68.2575 208.003 69.6136C208.715 70.9621 209.071 72.5341 209.071 74.3295C209.071 76.1174 208.715 77.6894 208.003 79.0454C207.299 80.3939 206.287 81.4469 204.969 82.2045C203.658 82.9545 202.086 83.3295 200.253 83.3295ZM200.287 79.1363C200.954 79.1363 201.518 78.9318 201.98 78.5227C202.442 78.1136 202.795 77.5454 203.037 76.8182C203.287 76.0909 203.412 75.25 203.412 74.2954C203.412 73.3257 203.287 72.4772 203.037 71.75C202.795 71.0227 202.442 70.4545 201.98 70.0454C201.518 69.6363 200.954 69.4318 200.287 69.4318C199.598 69.4318 199.014 69.6363 198.537 70.0454C198.067 70.4545 197.708 71.0227 197.458 71.75C197.215 72.4772 197.094 73.3257 197.094 74.2954C197.094 75.25 197.215 76.0909 197.458 76.8182C197.708 77.5454 198.067 78.1136 198.537 78.5227C199.014 78.9318 199.598 79.1363 200.287 79.1363Z" fill="#0D4B70"/>
<path d="M211.918 83V65.5454H217.316V68.7272H217.497C217.816 67.5757 218.335 66.7197 219.054 66.1591C219.774 65.5909 220.611 65.3068 221.566 65.3068C221.823 65.3068 222.088 65.3257 222.361 65.3636C222.634 65.3939 222.888 65.4432 223.122 65.5113V70.3409C222.857 70.25 222.509 70.178 222.077 70.125C221.653 70.0719 221.274 70.0454 220.941 70.0454C220.281 70.0454 219.687 70.1931 219.156 70.4886C218.634 70.7765 218.221 71.1818 217.918 71.7045C217.622 72.2197 217.475 72.8257 217.475 73.5227V83H211.918Z" fill="#0D4B70"/>
<path d="M230.855 83.25C229.567 83.25 228.397 82.9166 227.344 82.25C226.291 81.5833 225.45 80.5833 224.821 79.25C224.192 77.9166 223.878 76.2613 223.878 74.2841C223.878 72.231 224.204 70.5416 224.855 69.2159C225.507 67.8901 226.359 66.9091 227.412 66.2727C228.473 65.6363 229.613 65.3182 230.833 65.3182C231.749 65.3182 232.533 65.4772 233.185 65.7954C233.836 66.106 234.374 66.5075 234.799 67C235.223 67.4924 235.545 68.0038 235.764 68.5341H235.878V59.7272H241.435V83H235.935V80.1704H235.764C235.53 80.7083 235.196 81.2121 234.764 81.6818C234.333 82.1515 233.791 82.5303 233.139 82.8182C232.495 83.106 231.734 83.25 230.855 83.25ZM232.787 78.9204C233.461 78.9204 234.037 78.731 234.514 78.3522C234.992 77.9659 235.359 77.4242 235.617 76.7272C235.874 76.0303 236.003 75.2121 236.003 74.2727C236.003 73.3182 235.874 72.4962 235.617 71.8068C235.367 71.1174 234.999 70.5871 234.514 70.2159C234.037 69.8447 233.461 69.6591 232.787 69.6591C232.098 69.6591 231.514 69.8485 231.037 70.2272C230.56 70.606 230.196 71.1401 229.946 71.8295C229.704 72.5189 229.583 73.3333 229.583 74.2727C229.583 75.2121 229.708 76.0303 229.958 76.7272C230.208 77.4242 230.567 77.9659 231.037 78.3522C231.514 78.731 232.098 78.9204 232.787 78.9204Z" fill="#0D4B70"/>
<path d="M244.949 83V65.5454H250.506V83H244.949ZM247.733 63.5113C246.953 63.5113 246.282 63.2538 245.722 62.7386C245.161 62.2159 244.881 61.5871 244.881 60.8522C244.881 60.125 245.161 59.5038 245.722 58.9886C246.282 58.4659 246.953 58.2045 247.733 58.2045C248.521 58.2045 249.192 58.4659 249.745 58.9886C250.305 59.5038 250.585 60.125 250.585 60.8522C250.585 61.5871 250.305 62.2159 249.745 62.7386C249.192 63.2538 248.521 63.5113 247.733 63.5113Z" fill="#0D4B70"/>
<path d="M262.191 83.3295C260.35 83.3295 258.77 82.9507 257.452 82.1932C256.141 81.4356 255.134 80.3825 254.429 79.0341C253.725 77.678 253.372 76.1098 253.372 74.3295C253.372 72.5416 253.725 70.9735 254.429 69.625C255.141 68.2689 256.153 67.2121 257.463 66.4545C258.781 65.6969 260.353 65.3182 262.179 65.3182C263.793 65.3182 265.198 65.6098 266.395 66.1932C267.6 66.7765 268.539 67.6022 269.213 68.6704C269.895 69.731 270.255 70.9772 270.293 72.4091H265.1C264.994 71.5151 264.691 70.8144 264.191 70.3068C263.698 69.7992 263.054 69.5454 262.259 69.5454C261.615 69.5454 261.05 69.7272 260.566 70.0909C260.081 70.4469 259.702 70.9772 259.429 71.6818C259.164 72.3788 259.031 73.2424 259.031 74.2727C259.031 75.303 259.164 76.1742 259.429 76.8863C259.702 77.5909 260.081 78.125 260.566 78.4886C261.05 78.8447 261.615 79.0227 262.259 79.0227C262.774 79.0227 263.228 78.9129 263.622 78.6932C264.024 78.4735 264.353 78.1515 264.611 77.7272C264.869 77.2954 265.031 76.7727 265.1 76.1591H270.293C270.24 77.5985 269.88 78.856 269.213 79.9318C268.554 81.0075 267.626 81.8447 266.429 82.4432C265.24 83.0341 263.827 83.3295 262.191 83.3295Z" fill="#0D4B70"/>
</svg>
